<svg version="1" xmlns="http://www.w3.org/2000/svg" width="1333.333" height="1333.333" viewBox="0 0 1000.000000 1000.000000"><path d="M488.7 128.6c-.1.1-6 .5-13.2.8-12.9.7-15 .9-25.5 2.3-3 .4-5.9.8-6.5.8-1.2.1-8.9 1.4-13.1 2.1-1.6.3-3.6.7-4.4.9-.8.2-2.8.7-4.5 1-3.5.6-4.4.8-15.5 3.5-4.7 1.1-12.1 3.2-16.5 4.7-4.4 1.4-9.3 2.9-11 3.3-12.2 3.3-48.5 19.6-64.8 29.2-2.6 1.5-5 2.8-5.3 2.8-.2 0-2.7 1.6-5.4 3.5-2.8 1.9-5 3.2-5 2.8 0-.5-.4-.3-.8.2-.4.6-4.9 3.8-9.9 7.3-5.1 3.4-10.1 6.8-11 7.6-1 .8-6.3 5-11.8 9.4-47 37.4-85.8 88.6-109.4 144.4l-4.8 11.1-6.7 2.3c-3.7 1.2-7.2 2.7-7.9 3.2-.7.6-1.6 1.1-2.2 1.1-.5 0-4 2.1-7.7 4.5-6.1 4-6.9 4.3-8.3 3-.8-.9-1.5-1.3-1.5-1 0 .3-1.9-.1-4.1-1-7-2.4-25.9-4-25.9-2.1 0 .5-.4.6-.8.3-1.4-.8-14.4 2.4-20.6 5.1-16.1 7.1-31 21-39.9 37.3-7.4 13.4-8.8 20-10.2 48-.3 5.8-.7 13.4-1 17-.3 3.6-.7 11.7-1 18-.3 6.3-.8 14.2-1 17.5-2.8 40.9-2.4 50.5 3 61.9 4.5 9.4 16.6 19.2 24.9 20.1 1.7.2 3.3.4 3.6.5.3.1 1.9.1 3.5 0 1.7-.2 3.9-.3 5-.4 1.1-.1 2.5-.4 3-.7.6-.4 2.2-.9 3.7-1.3 3.8-.9 11-5.9 14.8-10.3 1.8-2 4.6-6.4 6.1-9.8 3.2-7 3.3-7.1 5.4-55.5.3-7.4.8-16.9 1-21 .2-4.1.7-14 1-22 .7-16.5 1.2-20.7 2.6-21.5.6-.4.8.3.5 1.7-.3 1.2-.8 8.4-1.1 15.8-1.3 27.7-1.5 30.7-2 40-2 34.5-1.4 43.4 3.9 53.7 4.6 9.3 14.7 17.2 24.1 19.1 6 1.2 15.5.3 19.5-1.8 1.6-.9 2-.1 4 7.3 21.6 80.6 70 152.1 137 202.1 13.6 10.2 35 23.9 45 28.9 1.9 1 5.3 2.8 7.5 4 8.5 4.8 42.6 19.5 47 20.3.6.1 3.7 1.1 7 2.2 17 5.9 47.6 13 62.5 14.7 3 .3 6.2.8 7 1 1.5.4 9.8 1.2 22.5 2.1 9 .7 39.1.7 47.5 0 7.7-.6 18.5-1.6 22-2 3.7-.5 12.1-1.7 15-2.2 1.4-.2 4.1-.7 6-1 8.9-1.4 36.1-8 44.5-10.8.6-.2 1.3-.4 1.7-.5.4-.1 2.3-.8 4.3-1.7 1.9-.8 3.6-1.4 3.7-1.3 2.5.7 49.3-20.2 62.3-27.9 36.2-21.2 61.6-41.5 91-72.6 5-5.3 13.9-16 20.9-25.1 4.2-5.5 8-10.5 8.4-11 2.2-2.9 14.5-22.1 18.9-29.6 5.8-9.8 17.6-34 21.8-44.4 1.5-3.9 3.3-8.4 4-10 4.7-11 13.1-40.6 16.4-57.5 2.7-13.8 2.9-15.4 4.6-29 1.4-10.7 2-24 2-45v-24.5l5-.2c5.8-.2 11.9-.9 15.5-1.8 1.4-.3 4-.8 5.8-1.1 7.2-1.2 30.4-10.8 32.2-13.4.3-.3 1.2-1 2-1.4 8.8-4.1 25.9-20 35.4-32.6 3.1-4.1 6.1-8 6.6-8.7.6-.7 1-1.4 1-1.7 0-.3 1.4-2.9 3.1-5.7 6.6-11.3 12.5-28.8 14.5-43.4.9-6.3.9-23.6 0-29.5-1.8-12.8-5.3-23-11.4-33.4-5.7-9.6-19.5-23.8-30.4-31.4-8-5.5-20.4-11.7-25-12.6-1.5-.2-3.3-.8-4-1.2-.7-.5-1.9-.9-2.8-.9-1.3-.2-7.6-1.2-12.3-2.1-5.2-.9-20.6-.3-27.7 1.1-8.5 1.8-9.9 2.1-15.5 4-6.3 2.1-22.1 10-24.1 12-.9.8-2.1 1.5-2.7 1.5-.7 0-2 .8-2.9 1.7-.8 1-3.1 2.9-4.9 4.3-1.8 1.4-6.7 5.8-10.7 9.9-4 4-7.7 7-8.2 6.5-.4-.5-3.6-4.9-7.1-9.9-5.9-8.4-15.3-20.4-22.4-28.5-5.3-6.2-30.8-31.5-37.1-36.9-15.8-13.5-42.2-32.3-56.9-40.6-18.4-10.3-48.5-24.4-58-27.1-.5-.1-4-1.4-7.8-2.8-3.7-1.4-6.9-2.5-7.2-2.6-.3 0-1-.2-1.7-.5-2.3-.7-16-4.7-17.7-5-.9-.2-6.5-1.5-12.6-2.9-6-1.4-12.6-2.7-14.5-3-1.9-.3-4.6-.8-6-1-4.9-.9-10.6-1.7-15.5-2.2-2.7-.3-6.6-.7-8.5-.9-8.4-1.1-44.5-2.5-45.3-1.9zm41.3 35.7c1.9.3 6 .8 9 1.2 5.6.6 15.5 2.1 20 3 1.4.3 3.9.7 5.5 1 2.9.4 21.6 5.1 30 7.5 7 2 25.5 8.5 28.3 9.9.9.5 5.3 2.4 9.7 4.2 12.2 5.1 33 16.1 45.3 24.1 1.5 1 4.1 2.5 5.7 3.4 1.7.9 3.2 2 3.5 2.3.3.4 3.7 2.9 7.5 5.6 6.8 4.7 19.4 14.7 26.5 20.9 6.8 6.1 30 29.7 30 30.6 0 .6-1.1.5-2.7-.1-4.5-1.7-17.4-1.4-28.3.5-1.4.3-4.1.7-6 1-7.4 1.2-9.7 1.8-15 3.7-8.3 3.1-16.1 8.2-23.6 15.5l-6.7 6.5-2.7-2.9c-3.8-4.2-9.7-7.8-15.6-9.5-4.9-1.4-17.8-1.8-19.9-.5-.6.3-3.7.8-7 1.2-3.3.3-7.1.9-8.5 1.2-1.4.3-3.8.7-5.5.9-15 2-20 3.2-28 6.9-8.3 3.8-7.7 3.4-16.3 11.2-7.1 6.5-14.2 16.5-17.3 24.6l-2.1 5.6-7.1-7c-7.9-7.8-13.9-12.2-21-15.5-5.1-2.4-12.7-4.8-14.1-4.4-.4.1-1.3-.2-2-.8-1.1-.9-22.7-.8-27.6.2-4.6.8-10.8 2.7-14.7 4.4-2.1.9-4 1.7-4.3 1.7-1.7.3-11.3 6.6-16 10.5-13.7 11.6-24.6 26.8-29 40.6-.7 2.2-1.4 4.3-1.6 4.6-.2.4-3.7-2.5-7.6-6.5-4-3.9-10.9-9.4-15.3-12.1-4.4-2.7-8.2-5.2-8.5-5.5-1.6-1.6-17.6-9.9-20.2-10.4-.7-.2-3.1-.8-5.3-1.4-15.7-4.3-40.2-2.7-56.5 3.6-1.4.5-2.9 1.1-3.5 1.2-.5.1-2.8 1.2-5 2.3-2.2 1.2-4.3 2.1-4.7 2.2-.4 0-1.3.6-1.9 1.2-.7.7-1.7 1.3-2.2 1.3-.8 0-10 6.1-15.1 10-8.2 6.3-25.3 25.8-31.1 35.5-.9 1.5-1.4 1.1-4.2-2.7-6.7-9.4-17.1-17.6-31.4-24.7-4.6-2.3-8.5-4.4-8.7-4.6-.5-.4 12.1-26.2 16.6-34 7-12.3 24.4-38.2 27.1-40.5.3-.3 2.2-2.5 4.1-5 7.6-9.9 32.2-35.3 41.7-43 3-2.5 6.5-5.4 7.7-6.5 1.2-1.1 3.5-2.9 5-4s3.7-2.8 4.9-3.8c4.2-3.6 25.3-17.5 34.7-22.9 18.4-10.5 46.9-23.5 58-26.3.3-.1 1.2-.4 2-.8 2-.8 11.1-3.8 13-4.3.8-.2 6.6-1.7 12.8-3.3 6.1-1.6 11.2-2.7 11.2-2.5 0 .2 1 0 2.3-.5 1.2-.5 4.4-1.2 7.1-1.5 2.7-.4 5.2-.9 5.5-1.1.4-.2 3.3-.6 6.5-1 3.3-.3 6.2-.8 6.6-1 .3-.2 4.3-.6 8.9-.9 4.7-.3 8.6-.8 8.9-1 .6-.7 53.9 0 58.2.7zm374.5 98.2c2.8.3 7.5 1.3 10.5 2.2 3 .9 5.7 1.7 6 1.8 2.1.4 9.6 4.6 14.7 8.3 18.4 12.9 29.6 34.1 30.6 58 .4 9.1-.9 21.2-3.2 30.2-4.8 18.3-15.3 36.2-30 51.3-6.7 7-22.1 19.5-22.1 18 0-.4-.4-.3-.8.2-1.5 2.1-17.9 9.8-23.7 11.1-1.1.3-3.1.8-4.5 1.1-1.4.3-3.4.7-4.5.8-1.1.2-2 .4-2 .5 0 .6-5.4 1.1-14 1.3-22 .6-40.6-7.5-55.5-24.1-7.5-8.4-13.7-21.3-16.6-34.3-1-4.6-1.2-24.5-.3-30.4 1.5-9.6 5.6-23 9.8-31.9 9-18.8 27.8-39.9 44.6-49.8 4-2.4 16.4-8.3 19.5-9.3 11.8-3.7 12.8-3.9 24.5-5.1 3.3-.3 6.1-.7 6.2-.8.3-.2 3.1 0 10.8.9zM745.2 287c17.5 3.2 32.5 17.5 37.3 35.6 2 7.7 1.8 21.6-.6 30.8-2.1 8.2-7.5 19.6-11.9 25.1-1.6 2.1-3 4.2-3 4.7s1.3 2.6 3 4.6c6 7.5 9.9 20.8 9.4 32.2-1.1 27.3-2 31.5-8 37.4-3.4 3.4-10.1 6.9-11.4 6.1-.6-.3-1-.2-1 .3 0 1.3-6 .7-10.1-1.1-2-.8-4.9-3.2-6.5-5.3l-2.9-3.8V436c0-17.2-.1-17.7-2.5-21.3-3.2-4.7-7.3-6.1-15.5-5.3-3.5.3-6.9.8-7.7 1.1-1.2.4-6.7 1.3-11.6 1.9-1.2.2-2.4.5-2.6.7-.2.2-.7 5.1-1 10.9-.3 5.8-.8 15.2-1.2 21-.7 12.8-.8 13.7-2.7 18.1-2.9 7.1-10.8 12.7-19 13.6-3.5.4-5.7.2-6.1-.6-.4-.6-1.5-1.1-2.4-1.1-2.2 0-6.9-5-8.6-9.2-.7-1.8-1.2-5.8-1.1-8.8.4-10.1 1.6-31.4 2-37 .2-3 .7-10.7 1-17 .3-6.3.8-14.9 1-19 .3-4.1.7-11.8 1-17 .3-5.2.8-13.6 1-18.5.7-11.5 2-17.4 5.7-25.3 2.8-6.1 9.5-15.1 14.8-20.1 7.4-7.1 20.4-13.2 31-14.6 7.7-1.1 11.5-1.7 11.8-1.9.8-.8 13.1-.5 18.4.4zm-98 15.1c4 2.1 7.7 6.6 8.9 11.1 2.2 8.1-2.1 18.6-9.7 23.8-3.5 2.3-4.5 2.7-8.9 3.5-1.1.2-2.1.4-2.2.5-.5.4-1.5.6-7.8 1.4-3.2.4-6.8 1-7.9 1.2-2.5.5-7.8 1.2-13.2 1.9-2.3.2-5.3.9-6.8 1.4-1.4.6-2.6.7-2.6.3 0-.3-1.1.9-2.3 2.8-1.4 2-2.4 5-2.4 7 0 1.9-.3 7.4-.7 12.2-.6 8.6-.5 9.2 2.4 9 1.3-.1 8.9-1.3 11-1.8 1.4-.3 4.3-.7 6.5-.9 2.2-.3 8.1-1.2 13-2.1 10.6-1.8 11.1-1.9 16.2-.5 7.5 2 13.1 10.9 11.9 19.1-1.4 10.2-9.6 18.7-19.6 20.4-1.9.3-4.8.8-6.5 1.1-1.6.3-5.2.8-8 1.1-2.7.3-5.3.8-5.6.9-.3.2-3 .7-6 1-3 .3-6.1.8-6.9 1-.8.2-3.5.7-6 1-2.5.4-4.6.8-4.8 1-.2.1-.5 4.7-.8 10.1-.3 5.5-.6 11.8-.8 14.1-.3 4.4.8 6.2 3.4 5.8.8-.1 3.5-.5 6-.8 2.5-.4 5.4-.8 6.5-1.1 1.1-.2 4.3-.7 7-1.1 2.8-.4 6.1-.9 7.5-1.1 11.9-1.8 16.3-2.2 17.5-1.5.6.3 1.2.6 1.5.6 2.3.1 8 4.9 9.6 8.1 2.4 4.9 2.4 13.6 0 18.2-3.2 6.2-9.7 11.5-15.6 12.8-5.6 1.2-6.7 1.4-10.5 1.9-2.2.3-5.8.8-8 1.1-2.1.2-5.1.7-6.5 1-1.4.3-3.8.7-5.5.9-1.6.2-4.6.7-6.5 1-7.3 1.2-13.7.9-20.5-.9-7.5-1.9-16.5-9.5-20.8-17.5-2.3-4.1-6-17.4-5.2-18.3.2-.2.6-6.2 1-13.3.3-7.2.8-16.4 1-20.5.8-14.1 1.5-26.5 2-35 .3-4.7.7-12.8 1-18 .6-12.3 1.3-16.3 3.8-23 5.7-15.5 19.4-29.2 34.6-34.6 3-1.1 6.6-1.8 14.8-2.9 1.2-.2 3.4-.6 5-.9 1.5-.3 4.6-.8 6.8-1.1 2.3-.3 5.2-.8 6.5-1 1.4-.3 4.8-.8 7.5-1.1 2.8-.4 5.2-.8 5.4-1 .7-.6 8.2.6 10.3 1.7zM499 325.3c12.3 2.2 26.9 13.6 32.9 25.8 6.3 12.8 6.5 16 3.6 65.4-.2 3.8-.7 12.2-1 18.5-.3 6.3-.8 14.4-1 18-.2 3.6-.7 11.9-1 18.5-.5 8.6-1.2 13.2-2.6 16.4-2.3 5.2-8.8 11.6-13.2 13-5 1.6-9.6 2-10.3 1-.3-.5-.9-.7-1.4-.4-1.1.7-6.5-3-9.1-6-2.2-2.5-3.7-8.1-3.4-12.6.1-1.9.6-9.7 1-17.4.3-7.7.8-16.3 1-19 .2-2.8.6-10.6 1-17.5.3-6.9.8-15.2 1-18.5 1.7-29.5 1.7-32 0-36.1-2.4-6-6.7-8.9-13.8-9.1-7.8-.2-12.7 2-19 8.3-7.9 8-8.9 11.6-10.2 38.9-.4 6.6-.8 14.7-1 18-.4 7-1.3 23.3-2 36-.9 16.2-1.7 28.9-2 30.6-1 5.3-8.7 14.9-11.9 14.9-.8 0-1.6.5-1.8 1-.5 1.6-9 2.3-13.4 1.1-7.2-1.9-12.4-9.8-11.9-17.9.2-2 .6-10 .9-17.7.4-7.7.9-16 1.1-18.5.3-2.5.7-10.6 1-18 .4-7.4.8-15.8 1-18.5.2-2.8.7-10.6 1-17.5.9-18.7 2.1-24.8 7.1-35.7 4.4-9.7 8.5-15.5 16.8-23.8 8.4-8.3 11.3-10.6 17.5-13.7 2.5-1.3 4.8-2.6 5.1-2.9.6-.6 14.5-4.7 18-5.2 3-.4 16.5 0 20 .6zm-157.7 24.2c7.9.8 20.6 5.6 28.1 10.5 20.9 13.7 32.7 36.4 32.8 62.9 0 29.9-11.2 56-34.2 79.2-8.5 8.6-20.3 17.9-22.6 17.9-.7 0-1.4.4-1.6.8-.2.6-11.2 6.4-12.8 6.8-.3 0-1.2.3-2 .7-4.9 1.9-15.9 4.6-22 5.3-12.6 1.4-20.1 1-32-2.1-1.4-.3-2.9-.7-3.5-.9-1.9-.5-10-4.5-13.6-6.8-14-8.8-25.8-24.4-30.3-40-2.7-9-2.8-9.8-3.1-21.8-.9-33.7 12.7-62.6 41.6-88.5 10.8-9.7 31.3-20.2 43.4-22.2 4.1-.7 6-1.1 6-1.3 0-.1 2.5-.4 5.5-.7 3-.3 5.6-.6 5.8-.7.3-.3 7.7.1 14.5.9zm-163.3 25c10.3 1.7 22 9.7 28.7 19.5 5.7 8.5 7.8 16.1 7.8 29-.1 10.3-.8 27.5-2 44.5-.2 3.3-.7 11.2-1 17.5-.3 6.3-.7 14.4-1 18-.3 3.6-.7 11.2-1 17-.3 5.8-.8 11.8-1.1 13.5-.9 4.6-4.4 10.1-8.3 13.3-5.7 4.6-8.3 5.1-19.3 4.3-2.8-.2-8.8-6.4-10.3-10.7-.7-2.1-1.2-5.5-1-7.4.3-3.1 1.2-18.8 2-35.5.8-15.8 1.6-29.6 2-35 .2-3.3.7-12.1 1.1-19.5.4-7.4.8-14.5.9-15.8.1-1.2-.6-4-1.7-6.1-4.6-9.3-17.2-9.2-26.7.1-7.1 6.9-7.5 9.1-9.6 52.3-.3 4.9-.7 12.4-.9 16.5-.3 4.1-.8 12.2-1.1 18-.3 5.8-.8 14.8-1 20-1.1 19.8-1.8 22.4-7.9 28.8-7.1 7.6-19.8 8.8-26.8 2.5-1.1-1-2.8-3.4-3.8-5.4-1.9-3.7-2.1-11.1-.6-32.9.8-11.2 1.4-23 2.1-36.5.3-6.1.7-13.6 1-16.8 1.7-23.4 1.7-31.5.1-34.8-2.2-4.5-5.6-6.8-10.2-7-7.1-.3-12.4 2.1-17.2 7.6-6.2 6.9-6.8 9.2-7.7 29-.3 6.6-.8 14.7-1 18-.2 3.3-.7 11.2-1 17.5-.3 6.3-.8 14.2-1 17.5-.2 3.3-.7 11.4-1 18-1.3 25.4-1.9 28.2-7.8 34.3-8.1 8.5-19.4 9.7-26.8 3.1-5.6-5-6.2-7.9-5.5-23.3.4-7.8.9-17 1.1-20.6.5-11.3 1.5-29.2 2-36 .3-3.6.7-11 1-16.5 1.3-24 1.7-28.3 3-34.1 4.5-19.5 19.1-38.2 37.8-48.3 3.1-1.7 5.7-2.8 5.7-2.5 0 .4.7.1 1.5-.6s1.5-.9 1.5-.5.6.2 1.3-.4c.8-.6 2.9-1.3 4.8-1.5 1.9-.3 3.4-.5 3.4-.6 0-1.2 18.5-1.3 21.6-.1 1.5.5 3 .7 3.3.4.3-.3 1.2 0 2.1.7.8.7 1.5 1 1.5.6 0-.3 2.3.8 5 2.4 4.3 2.5 5.4 2.8 7 1.8 1.1-.7 2-1.6 2-1.9 0-1.3 11.8-8.6 18-11.2 6.3-2.6 8.6-3.2 16-4.4 1.9-.3 3.6-.6 3.8-.7.5-.5 10.8.1 15.2.9zm309.5 27.7c-.3 5.1-.7 13.1-1 17.8-4.6 77.5-4.5 79.6 5.6 94 7.5 10.7 15.4 15.1 27.4 15 6.4 0 14.7-2.3 17.3-4.8.7-.6 1.8-1.2 2.3-1.2 3.3 0 15.9-17.6 15.9-22 0-1.6.9-1.2 3.8 1.7 7.8 7.9 17.8 12.9 27.3 13.7 2 .2 4.1.5 4.5.8 1.4.7 11-.1 19.4-1.6 1.4-.3 4.5-.7 7-1 2.5-.3 5.6-.8 7-1.1 2.4-.5 3.7-.7 12.5-2 11.1-1.5 18-4.5 24.3-10.5 4-3.9 4.1-3.9 6.4-2.2 4.3 3.3 10 4.8 17.3 4.6 12.1-.4 14.9-1.6 24.6-10.3 5.2-4.7 10.3-13.8 11.3-20.1.2-1.9.8-9.8 1.2-17.5.9-18.8.7-18.1 5.3-18.3l2.9-.1-.1 7.7c-.1 12.9 5.5 28 13.7 37 4 4.3 13.8 9.8 15.6 8.7.6-.3 1-.3 1 .2 0 .4 2.6.7 5.7.6 5.8-.2 18.3-4 18.3-5.5 0-.4.6-.8 1.4-.8 1.8 0 10.2-9.4 12.5-13.9 3.3-6.5 4.9-14.5 5.1-24.6v-3l4.5 4.7c5.6 5.9 14.8 13 20.6 15.9 2.4 1.2 4.6 2.4 4.8 2.5 1.4 1.1 2.3 45.8 1.1 58.4-1.7 17-2.1 20.6-2.6 23.6-.2 1.6-.9 5.4-1.4 8.4-.5 3-1.2 6.8-1.5 8.5-2.3 13.5-13.3 50.3-18.7 62.4-17.8 40-33.9 65.8-59.3 95.1-3.8 4.4-23.8 24.4-29 29-7.5 6.7-20 16.6-27 21.6-3.8 2.7-7.1 5.2-7.3 5.6-.2.5-1 .8-1.8.8s-1.4.3-1.4.7c0 .5-1 1.3-2.3 1.9-1.2.6-6.2 3.6-11.2 6.6-33 20.1-72.2 35-111.5 42.3-1.4.3-3.6.7-4.9 1-1.2.2-4.4.7-7 1-2.5.4-5.7.8-7.1 1-9.7 1.4-20.6 1.9-42 2-24.3 0-40.8-1-50-2.9-1.4-.3-4.5-.8-6.9-1.1-2.4-.3-4.7-.8-5.2-1.1-.5-.3-2.6-.6-4.6-.8-2.1-.2-4.5-.6-5.3-.9-.8-.3-7.3-1.9-14.5-3.7-7.1-1.8-15.9-4.4-19.5-5.7-3.6-1.4-6.7-2.5-7-2.5-1.6-.1-21.4-8.1-29-11.6-3.6-1.7-6.9-3-7.4-3s-1.2-.4-1.5-.9c-.3-.4-3.7-2.4-7.6-4.3-3.8-1.9-7.2-3.7-7.5-4-.3-.3-2.5-1.6-5-2.9-3.7-2-26.1-16.7-29.5-19.3-27.3-21.5-41.7-34.9-57.5-53.8-2.5-2.9-4.9-5.8-5.5-6.4-2.7-3-15.5-20.7-15.5-21.5 0-.5-.4-1.1-.9-1.3-1.6-.5-16.9-26.5-23.2-39.1-11.7-23.7-21.7-52.3-27.5-78.4-1.3-6.2-2.4-11.5-2.4-11.9 0-.3 1.6 1.6 3.7 4.3 4.8 6.3 7.7 8.9 13.8 12 8.8 4.6 23.6 3.7 31.7-1.9 1.4-1 2.8-1.8 3.1-1.8 1.1 0 7.2-6.7 9.8-10.9 5-7.7 6.4-15 6.8-35.1l.1-2.4 1.7 2.4c3.3 4.9 13.9 15.3 20 19.6 11 7.9 26.5 14 37.8 14.9 2.8.2 5.2.5 5.5.5 1.4.4 13.9 0 17-.4 1.9-.3 5.3-.7 7.5-1 7.9-1.1 19.8-4.7 26.8-8.2 2.6-1.4 4.7-2.2 4.7-1.9 0 .5 4.9-2.3 6-3.5.3-.3 1.9-1.2 3.5-2 1.7-.8 3.2-1.7 3.5-2 .3-.3 3.2-2.5 6.4-5 6.3-4.8 18.8-17 24.5-23.9 3.5-4.2 3.5-4.2 4.7-1.9.6 1.3 1.7 4.7 2.4 7.5 1.2 5.4 5.2 11.8 9.9 15.9 9.8 8.7 27.1 9.5 39.1 1.8 12.3-7.8 17.3-17.8 18.5-37 1.1-18.1 1.4-24.7 2-35.9.3-6.1.7-13.9 1-17.5.2-3.6.7-12.1 1-19 1-20.7 1.3-23.8 2.9-26.9 1.3-2.5 6-7.1 7.3-7.1.2 0 .1 4.2-.2 9.2zm-322.9 53.5c-.5 8.5-1.1 19.7-2.1 37.3-1 18.9-1.7 27.5-2.2 28-.5.5.4-26.7 1.2-36.5.2-2.2.6-10.3 1-18 .3-7.7.8-15.2 1.1-16.8 1.1-5.3 1.5-2.6 1 6z"/><path d="M885.7 302.6c-.1.1-2.2.5-4.7.8-18.6 2.2-39.2 19-48.2 39.3-4.3 9.7-6 23-4.3 33.6 2 12.6 13.2 25.5 24.9 28.9 4.4 1.2 18.4 1.9 20.1 1 .5-.3 1.6-.7 2.5-.8 3.6-.3 10.5-2.7 14.8-5.1 29.2-16 43.8-52 31.6-77.8-3.9-8.3-15.5-17.5-24.2-19.2-3-.5-12.1-1.1-12.5-.7zm19.9 27.8c5.2.9 10.3 5.3 11.3 9.7 1.1 5.1-1.4 18-5 25.2-5.4 10.8-14.3 20.3-24.6 26.4-2.4 1.4-5.1 2.6-6 2.8-1 .2-1.9.4-2 .5-.2.2-.6.3-1 .5-.5.1-2 .5-3.5.9-4.5 1.3-8.8 1.3-11.4 0-1.3-.7-2.4-1-2.4-.7 0 1.5-6-5.2-7.5-8.2-3-6.5-1.4-19.2 3.8-29.5 6.2-12.4 22-25.6 33.2-27.6 1.6-.3 3-.6 3.2-.7.4-.5 7.9 0 11.9.7zM728.6 326.7c-.2.2-2.3.6-4.7.9-10.6 1.3-11.8 1.6-15.2 3.8-5 3.4-5.5 5-6.3 23.2-.3 7.2-.6 13.9-.7 15-.2 2 2.3 2.2 9.8 1 1.7-.2 4.6-.7 6.5-1 7.9-1.3 12.2-3.1 16.3-6.6 8-7.1 12-18.4 9.5-26.5-1.4-4.3-7.2-9.2-11.4-9.7-1.9-.2-3.6-.3-3.8-.1zM314.2 390.6c-12 2.7-20.7 7.7-30.2 17.3-14.1 14.2-20.3 28.6-20.1 46.6.2 18.4 9.5 32.1 25.4 37.4 6.3 2.1 19.7 2 25.7-.2.8-.3 3.9-1.3 6.8-2.3 2.8-1 5.2-2.1 5.2-2.5 0-.4 1-.9 2.3-1.3 1.2-.3 3.3-1.6 4.7-2.8 1.4-1.3 3.7-3.3 5.2-4.4 9.7-7.5 19.8-24.5 22.3-37.4 4-21.6-3.3-39.8-19.3-47.9-7.2-3.6-18.6-4.7-28-2.5zm31.6 28.3c5.8 2.9 7.2 5.5 7.2 12.6 0 12.6-5.8 25.3-16.6 36-3.8 3.8-7.7 7.5-8.5 8-8.3 5.8-15.5 8.2-26.4 8.9-8.6.6-13.5-5.8-13.6-17.6 0-10.1 2.3-17.7 8-26.5 4.8-7.4 13.6-16.3 16.1-16.3.6 0 1-.4 1-.9 0-1.1 8.6-4.8 13.7-6 5.9-1.3 14.7-.5 19.1 1.8zM713 539.6c-8 1.8-12.7 4-19 8.9-8.9 6.9-14.7 14.9-17.9 24.7-2.2 7-2.7 10.7-3.6 28.3-.4 6.6-.8 14.3-1 17-.6 10.1-1.8 34.1-1.9 39.3-.1 4.5.3 5.7 2.3 7.3 2.8 2.3 6.2 2.4 10 .5 5.8-3.1 6.1-4.1 7.6-30.6.3-5.8.8-13.7 1-17.5.2-3.9.7-12 1-18 1.1-19.6 1.4-21.5 3.6-26 4.6-9.2 14.5-15.5 23.6-15 5.1.3 9.2 2.7 12.3 7.2 3.1 4.5 3.1 7.2.5 50.2-2.2 37.3-2.2 36.8.3 39.3 2.4 2.4 6.7 3.1 9.6 1.6 2.7-1.4 6.6-5.6 6.7-7.1 0-.7.2-1.9.4-2.7.1-.9.6-7.8.9-15.5.4-7.7.9-16 1.1-18.5.8-8.8 1.8-32.6 1.9-41.5 0-7.7-.4-9.8-2.6-14.7-1.4-3.1-3.9-6.9-5.5-8.6-2.8-2.9-11.3-8.7-11.3-7.7 0 .3-.9.1-2-.5-3.1-1.7-11.8-1.8-18-.4zM609.7 555.6c-.1.1-2.7.4-5.7.8-16 1.6-30.8 9.3-43.6 22.7-11.4 12-17.9 24.1-21 39.4-.3 1.1-.6 5.4-.9 9.6-1.3 25.1 12.7 45.3 35.6 51.1 5.5 1.5 12.9 1.6 20.9.4 7.3-1 8.6-1.4 11.9-3 1.7-.9 3.1-1.4 3.1-1.1 0 .3 1.1-.2 2.5-1.1 1.4-.9 2.5-1.3 2.5-1 0 1.2 11.5-7.1 17.3-12.4 11.6-10.6 20.8-26.1 24.1-40.5 2-9.1 1.6-26-.9-33-2.3-6.5-7.5-14.5-12.1-18.7-2-1.8-4.3-3.9-5-4.6-2.3-2.2-13.6-6.9-18.4-7.6-5.5-.9-10-1.3-10.3-1zm4.8 20.7c8.5 1.7 17.4 9.1 21.3 17.6 7.5 16.3 1.5 38.5-14.3 53.4-3 2.9-11.8 9.3-12.2 9-.2-.1-1.8.4-3.7 1.2-7.5 3.1-19.6 4-26 1.7-13.2-4.5-21.2-15.2-22-29.6-.9-15.1 5.5-29.6 18.3-41.4 5.6-5.2 17.3-11.2 22.4-11.5 2-.1 3.7-.5 3.7-.8 0-.7 8.4-.4 12.5.4zM515.5 569.8c-3.1.7-7.5 4.2-8.5 6.7-.5 1.2-1.1 6.9-1.5 12.6-.3 5.7-.8 13.1-1 16.4-.2 3.3-.7 11.4-1 18-.4 6.6-.8 14.2-1 17-.8 11.1-1.9 34.5-1.9 41.7-.1 6.6.2 7.9 1.9 9.2 4.2 3.2 10.7 1.5 14.2-3.7 1.8-2.6 2.3-5.2 2.8-14.2.3-6.1.8-13.7 1-17 .2-3.3.6-11.6 1-18.5.3-6.9.8-14.8 1-17.5.5-6.1 1.7-28.1 2-38.6.2-4.7-.2-8.1-1-9.2-1.5-2-5.4-3.5-8-2.9zM470.8 576.1c-1.4.4-5 1-7.9 1.4-4.8.6-6.8.9-11.9 1.9-3.7.6-7.6 2-9 3-.8.7-2.7 1.8-4.1 2.5-3.3 1.6-6.6 4.7-11.1 10.3-12.9 15.8-13.6 38-1.5 47 3.2 2.4 11.7 5.5 17.9 6.5 3.8.6 6.1 1.1 6.8 1.3.3.1.8.2 1.2.1 2.4-.3 11.6 3.5 13.4 5.7 2.9 3.3 3.3 5.9 1.9 11.4-2.2 8.7-8.7 14-19.1 15.7-3.2.5-6.2.7-6.6.4-.5-.2-.8-.1-.8.4 0 .4-1 .8-2.2.9-6.6.3-15.5 1.9-19.8 3.5-3.3 1.3-7 6.8-7 10.6 0 7.1 4.6 8.9 17 6.8 3-.5 7-.9 8.8-1 1.7 0 3.2-.3 3.2-.6s.6-.6 1.3-.6c5-.3 10.9-1.3 12.6-2.3 1.2-.6 2.1-.8 2.1-.5 0 .3 2.3-.7 5.2-2.2 7.8-4.2 16.1-13.1 20.5-22 3.6-7.2 3.8-8.1 3.7-17.2 0-7.3-.4-10.4-1.8-13.1-2.2-4.3-6.5-9-8.2-9-.7 0-1.4-.4-1.6-1-.1-.5-1.2-1.1-2.3-1.3-1.1-.1-2.4-.5-3-.9-.5-.3-2.6-.9-4.5-1.2-7.7-1.3-16-2.7-18.9-3.3-3.6-.6-7.8-3.3-8.9-5.8-1.6-3.4-.7-10.9 1.7-14.8 3.5-5.8 8.9-9.2 15.7-10.2 1.6-.2 4.5-.6 6.4-1 1.9-.4 5.1-.8 7-1 8.8-1 11.9-2.6 14.6-7.7 4.2-8-1.8-15.1-10.8-12.7zM390.5 589.3c-3.2 1.1-6.2 4-7.5 7.3-.7 1.7-1.2 8.1-2.5 33.1-1.3 24.4-1.6 30.4-2 34.8-.2 2.7-.7 11.1-1 18.5-.3 7.4-.8 15.4-1 17.8-.2 2.3 0 5.4.5 6.8 2.2 5.6 11.1 5.7 15.5 0 2.8-3.7 2.7-3.1 5-44.6.6-11 1.5-27.6 2-36.5 1.7-27.4 1.7-32.3 0-34.8-1.9-2.9-4.9-3.7-9-2.4zM358.4 594.5c-1.6.7-3.6 2.1-4.5 3.1-.9 1.1-8.4 21.9-16.7 46.4-8.2 24.5-15.4 45.6-15.9 46.9-.9 2.3-1.1 2.1-2.2-2.5-.7-2.7-1.4-5.6-1.6-6.4-1.6-7.6-17.8-71.2-18.7-73.3-1.3-3.4-3.3-4.5-7.4-4.2-4.4.2-8.3 3-10.1 7.3-1.7 4-2.7-.8 11.3 52.2 3.6 13.5 8.1 30.6 10.1 38 1.9 7.4 3.9 14.2 4.3 15 2.7 5.1 7.8 6.4 15.5 4.1 7-2 7.9-3.7 20.8-40.6C363 624 370 603.3 370 600.9c0-5.9-5.6-9-11.6-6.4z"/></svg>